<svg width="1440" height="492" viewBox="0 0 1440 492" fill="none" xmlns="http://www.w3.org/2000/svg">
<g filter="url(#filter0_d_205_136)">
<rect x="0.121826" width="1441" height="484" fill="#F7EBDA"/>
<g style="mix-blend-mode:overlay">
<path fill-rule="evenodd" clip-rule="evenodd" d="M1042.72 31.3229C1042.13 38.8446 1038.94 45.8403 1033.86 50.7712C1028.77 55.7019 1022.21 58.1638 1015.6 57.6152C1009 57.0667 1002.9 53.5526 998.642 47.8461C994.387 42.1394 992.326 34.7079 992.914 27.1862C992.914 27.1862 1006.66 34.572 1017.82 29.2545C1028.97 23.937 1042.72 31.3229 1042.72 31.3229ZM1049.54 51.2982C1047.97 54.2004 1046.14 56.8022 1044.14 58.9589C1042.91 59.9969 1041.87 60.9795 1040.91 61.8909L1040.91 61.8912L1040.91 61.8913C1035.85 66.6692 1032.87 69.4891 1015.72 68.0651C997.832 66.5793 995.752 63.8885 990.688 57.3371L990.688 57.337L990.688 57.3369C989.973 56.4114 989.198 55.4088 988.311 54.3217C981.141 45.5393 981.381 37.3163 982.187 27L989.302 27.591C988.154 42.2856 993.72 49.8529 993.72 49.8529C993.72 49.8529 998.473 59.6772 1016.26 61.1546C1034.05 62.632 1039.19 53.6293 1039.19 53.6293C1039.19 53.6293 1046.11 43.6195 1047.06 31.518L1054.52 32.1374C1055.46 31.9202 1056.43 31.8189 1057.42 31.8402C1059.9 31.8939 1062.3 32.7237 1064.27 34.2066C1066.24 35.6895 1067.67 37.7463 1068.35 40.0717C1069.04 42.3971 1068.93 44.8672 1068.05 47.1151C1067.18 49.363 1065.57 51.269 1063.49 52.55C1061.4 53.831 1058.93 54.4189 1056.46 54.2263C1053.99 54.0337 1051.63 53.0707 1049.75 51.4807C1049.68 51.4206 1049.61 51.3598 1049.54 51.2982ZM1054.26 38.4387C1055.18 37.8787 1056.25 37.591 1057.34 37.6146C1058.54 37.6406 1059.71 38.043 1060.66 38.762C1061.62 39.481 1062.31 40.4783 1062.64 41.6058C1062.98 42.7333 1062.92 43.931 1062.5 45.0209C1062.07 46.1108 1061.3 47.035 1060.28 47.6561C1059.27 48.2773 1058.08 48.5623 1056.88 48.4689C1055.68 48.3756 1054.54 47.9087 1053.63 47.1377C1053.04 46.6417 1052.57 46.0369 1052.24 45.3642C1053.07 43.1384 1053.75 40.8141 1054.26 38.4387ZM982.805 70.5511L1047.75 75.9451C1048.97 76.0467 1049.87 77.29 1049.76 78.7222C1049.65 80.1544 1048.57 81.233 1047.34 81.1315L982.4 75.7375C981.177 75.6359 980.276 74.3926 980.388 72.9604C980.5 71.5282 981.582 70.4496 982.805 70.5511ZM1044.87 266.477C1044.17 270.961 1041.94 275.003 1038.66 277.713C1035.38 280.423 1031.33 281.579 1027.39 280.928C1023.45 280.276 1019.95 277.869 1017.66 274.237C1015.37 270.605 1014.48 266.046 1015.18 261.561C1015.18 261.561 1023.08 266.664 1030.02 264.019C1036.96 261.374 1044.87 266.477 1044.87 266.477ZM1048.05 278.796C1046.97 280.46 1045.75 281.932 1044.45 283.128C1043.67 283.691 1043 284.23 1042.38 284.73L1042.38 284.73L1042.38 284.73C1039.12 287.349 1037.2 288.896 1026.98 287.203C1016.32 285.438 1015.19 283.722 1012.45 279.543L1012.45 279.543L1012.45 279.543C1012.07 278.953 1011.65 278.314 1011.17 277.618C1007.27 271.998 1007.79 267.076 1008.75 260.925L1012.99 261.628C1011.63 270.388 1014.62 275.201 1014.62 275.201C1014.62 275.201 1017.02 281.328 1027.62 283.083C1038.23 284.839 1041.72 279.688 1041.72 279.688C1041.72 279.688 1046.34 274.021 1047.46 266.806L1051.91 267.542C1052.49 267.458 1053.07 267.445 1053.66 267.506C1055.15 267.659 1056.55 268.274 1057.67 269.26C1058.78 270.246 1059.55 271.55 1059.85 272.979C1060.15 274.408 1059.97 275.884 1059.34 277.19C1058.71 278.496 1057.67 279.562 1056.35 280.228C1055.04 280.895 1053.54 281.127 1052.06 280.891C1050.59 280.654 1049.22 279.962 1048.16 278.916C1048.12 278.876 1048.08 278.836 1048.05 278.796ZM1051.47 271.311C1052.04 271.019 1052.7 270.899 1053.35 270.967C1054.07 271.041 1054.75 271.339 1055.29 271.817C1055.83 272.296 1056.21 272.928 1056.35 273.621C1056.5 274.313 1056.41 275.029 1056.11 275.662C1055.8 276.296 1055.29 276.812 1054.66 277.135C1054.02 277.459 1053.29 277.571 1052.58 277.457C1051.86 277.342 1051.2 277.006 1050.69 276.499C1050.36 276.173 1050.1 275.787 1049.93 275.367C1050.54 274.072 1051.05 272.711 1051.47 271.311ZM1007.12 287.087L1045.84 293.496C1046.56 293.617 1047.05 294.407 1046.92 295.261C1046.78 296.115 1046.08 296.709 1045.35 296.589L1006.64 290.179C1005.91 290.058 1005.42 289.268 1005.56 288.414C1005.69 287.56 1006.39 286.966 1007.12 287.087ZM653.708 101.92C654.633 105.482 654.278 109.242 652.721 112.373C651.163 115.503 648.531 117.748 645.403 118.612C642.274 119.477 638.907 118.891 636.04 116.983C633.174 115.075 631.043 112.001 630.118 108.439C630.118 108.439 637.621 109.515 641.913 105.179C646.204 100.844 653.708 101.92 653.708 101.92ZM660.026 109.963C659.764 111.565 659.336 113.072 658.757 114.404C658.357 115.09 658.034 115.718 657.735 116.301L657.735 116.301L657.735 116.301C656.166 119.356 655.24 121.16 647.119 123.404C638.646 125.745 637.261 124.858 633.887 122.698C633.411 122.393 632.894 122.062 632.313 121.712C627.615 118.881 626.418 115.054 625.149 110.167L628.519 109.236C630.327 116.196 634.093 118.739 634.093 118.739C634.093 118.739 637.844 122.459 646.269 120.131C654.694 117.802 655.628 112.788 655.628 112.788C655.628 112.788 657.226 107.008 655.736 101.276L659.269 100.299C659.669 100.04 660.102 99.8283 660.558 99.6717C661.708 99.277 662.947 99.2526 664.09 99.6022C665.233 99.9517 666.219 100.657 666.903 101.612C667.586 102.567 667.93 103.723 667.884 104.906C667.837 106.089 667.403 107.238 666.645 108.181C665.887 109.124 664.846 109.812 663.676 110.141C662.507 110.471 661.271 110.425 660.152 110.011C660.11 109.996 660.068 109.979 660.026 109.963ZM660.156 103.243C660.488 102.83 660.935 102.517 661.441 102.343C661.999 102.152 662.599 102.14 663.154 102.31C663.708 102.479 664.186 102.821 664.518 103.284C664.849 103.747 665.016 104.307 664.993 104.881C664.971 105.455 664.76 106.012 664.393 106.469C664.025 106.927 663.52 107.26 662.953 107.42C662.386 107.58 661.787 107.557 661.245 107.357C660.896 107.227 660.582 107.029 660.323 106.775C660.352 105.609 660.298 104.423 660.156 103.243ZM632.358 130.116L663.118 121.615C663.698 121.455 664.31 121.875 664.486 122.554C664.662 123.232 664.336 123.912 663.757 124.072L632.997 132.572C632.417 132.732 631.805 132.312 631.629 131.634C631.453 130.955 631.779 130.276 632.358 130.116ZM254.372 177.77C256.056 184.254 255.41 191.097 252.575 196.794C249.741 202.491 244.95 206.576 239.257 208.149C233.564 209.722 227.435 208.656 222.218 205.183C217.001 201.711 213.124 196.118 211.439 189.634C211.439 189.634 225.095 191.592 232.906 183.702C240.716 175.812 254.372 177.77 254.372 177.77ZM265.871 192.408C265.394 195.324 264.615 198.067 263.561 200.49C262.832 201.738 262.245 202.882 261.7 203.943C258.845 209.503 257.16 212.785 242.381 216.869C226.96 221.131 224.439 219.516 218.3 215.585L218.3 215.585L218.3 215.585C217.432 215.029 216.493 214.428 215.435 213.79C206.885 208.637 204.707 201.673 202.397 192.78L208.53 191.085C211.821 203.752 218.674 208.38 218.674 208.38C218.674 208.38 225.5 215.15 240.833 210.912C256.166 206.675 257.867 197.549 257.867 197.549C257.867 197.549 260.774 187.029 258.064 176.598L264.493 174.821C265.221 174.349 266.008 173.964 266.839 173.679C268.932 172.96 271.186 172.916 273.266 173.552C275.347 174.188 277.142 175.471 278.386 177.21C279.63 178.949 280.256 181.051 280.171 183.205C280.087 185.358 279.296 187.449 277.917 189.165C276.537 190.881 274.642 192.133 272.514 192.733C270.385 193.333 268.136 193.25 266.101 192.496C266.024 192.467 265.947 192.438 265.871 192.408ZM266.106 180.178C266.712 179.427 267.525 178.857 268.446 178.541C269.461 178.192 270.554 178.171 271.563 178.479C272.571 178.788 273.442 179.41 274.045 180.253C274.648 181.096 274.952 182.115 274.911 183.16C274.87 184.204 274.486 185.217 273.818 186.05C273.149 186.882 272.23 187.488 271.198 187.779C270.166 188.07 269.075 188.03 268.088 187.665C267.453 187.43 266.883 187.068 266.41 186.606C266.464 184.485 266.365 182.326 266.106 180.178ZM215.517 229.085L271.499 213.614C272.553 213.323 273.667 214.087 273.988 215.322C274.309 216.557 273.714 217.794 272.66 218.085L216.679 233.555C215.625 233.847 214.51 233.082 214.19 231.847C213.869 230.613 214.463 229.376 215.517 229.085ZM131.345 411.493C130.598 418.161 127.555 424.279 122.887 428.5C118.218 432.722 112.306 434.701 106.451 434.003C100.596 433.305 95.2779 429.987 91.6662 424.778C88.0546 419.569 86.4455 412.897 87.1929 406.229C87.1929 406.229 99.1914 413.233 109.269 408.861C119.347 404.489 131.345 411.493 131.345 411.493ZM136.815 429.468C135.33 431.998 133.627 434.253 131.783 436.107C130.659 436.99 129.705 437.831 128.82 438.611C124.181 442.697 121.443 445.109 106.244 443.297C90.3853 441.406 88.617 438.948 84.3116 432.962C83.7034 432.117 83.0445 431.201 82.2881 430.206C76.1774 422.17 76.637 414.867 77.662 405.722L83.9695 406.474C82.5094 419.501 87.2306 426.405 87.2306 426.405C87.2306 426.405 91.1618 435.291 106.931 437.171C122.699 439.051 127.537 431.211 127.537 431.211C127.537 431.211 133.994 422.533 135.197 411.804L141.808 412.593C142.654 412.43 143.524 412.371 144.397 412.421C146.6 412.548 148.712 413.362 150.419 414.743C152.126 416.124 153.338 417.998 153.874 420.087C154.41 422.176 154.242 424.369 153.395 426.339C152.548 428.31 151.067 429.953 149.172 431.025C147.277 432.098 145.068 432.542 142.875 432.292C140.682 432.042 138.62 431.111 136.996 429.637C136.935 429.582 136.875 429.525 136.815 429.468ZM141.397 418.187C142.228 417.718 143.188 417.496 144.157 417.552C145.225 417.613 146.249 418.008 147.077 418.678C147.905 419.347 148.492 420.256 148.752 421.269C149.012 422.282 148.931 423.345 148.52 424.3C148.109 425.256 147.391 426.053 146.472 426.573C145.553 427.093 144.483 427.308 143.419 427.187C142.356 427.066 141.356 426.614 140.569 425.9C140.062 425.44 139.661 424.887 139.386 424.279C140.193 422.327 140.872 420.282 141.397 418.187ZM76.9072 444.458L134.48 451.322C135.564 451.452 136.327 452.586 136.185 453.855C136.043 455.125 135.049 456.049 133.965 455.92L76.3919 449.056C75.3079 448.927 74.5446 447.793 74.6869 446.523C74.8292 445.254 75.8233 444.329 76.9072 444.458ZM56.6756 46.3788C55.9282 53.0469 52.8856 59.1646 48.217 63.3862C43.5485 67.6076 37.6363 69.5871 31.7814 68.889C25.9264 68.191 20.6081 64.8726 16.9964 59.664C13.3848 54.4553 11.7757 47.783 12.5231 41.1148C12.5231 41.1148 24.5216 48.1187 34.5993 43.7468C44.677 39.3749 56.6756 46.3788 56.6756 46.3788ZM62.1449 64.3543C60.6607 66.8843 58.9574 69.1391 57.1127 70.9926C55.9897 71.8764 55.0355 72.7169 54.1505 73.4965C49.5116 77.583 46.7736 79.9949 31.5742 78.1828C15.7155 76.2921 13.9472 73.8338 9.64181 67.8482C9.03356 67.0026 8.37467 66.0866 7.61825 65.0918C1.50765 57.0558 1.96719 49.7532 2.99223 40.6076L9.29973 41.3596C7.83965 54.3866 12.5608 61.2913 12.5608 61.2913C12.5608 61.2913 16.492 70.1766 32.2608 72.0565C48.0296 73.9365 52.8676 66.0968 52.8676 66.0968C52.8676 66.0968 59.3246 57.4186 60.527 46.6905L67.1385 47.4787C67.984 47.3156 68.8537 47.2566 69.7276 47.3069C71.9304 47.4336 74.0421 48.2479 75.7492 49.6289C77.4565 51.01 78.668 52.8841 79.2041 54.9731C79.7401 57.0621 79.5722 59.2546 78.7251 61.2251C77.8781 63.1955 76.397 64.839 74.5019 65.9113C72.6068 66.9835 70.3986 67.4277 68.2053 67.1777C66.0121 66.9277 63.9504 65.9967 62.3266 64.5232C62.2653 64.4676 62.2047 64.4113 62.1449 64.3543ZM66.7273 53.0726C67.5586 52.6039 68.5178 52.3822 69.4875 52.4379C70.5555 52.4994 71.5793 52.8942 72.4071 53.5638C73.2349 54.2334 73.8224 55.1422 74.0823 56.1551C74.3422 57.168 74.2608 58.231 73.8501 59.1864C73.4393 60.1418 72.7212 60.9387 71.8024 61.4586C70.8835 61.9786 69.8128 62.1939 68.7494 62.0727C67.6858 61.9515 66.6862 61.5001 65.8989 60.7856C65.3924 60.326 64.9911 59.7734 64.7162 59.1647C65.5229 57.2125 66.2018 55.168 66.7273 53.0726ZM2.23743 79.3444L59.8102 86.2083C60.8942 86.3376 61.6575 87.4716 61.5152 88.7412C61.3729 90.0109 60.3788 90.9353 59.2949 90.8061L1.72211 83.9422C0.638136 83.813 -0.125238 82.679 0.0170643 81.4093C0.159367 80.1397 1.15346 79.2152 2.23743 79.3444ZM970.385 424.806C969.636 429.619 967.239 433.956 963.721 436.865C960.204 439.773 955.853 441.014 951.628 440.314C947.402 439.615 943.647 437.032 941.189 433.134C938.73 429.237 937.77 424.343 938.519 419.531C938.519 419.531 947.006 425.008 954.452 422.169C961.898 419.33 970.385 424.806 970.385 424.806ZM973.795 438.027C972.64 439.813 971.334 441.392 969.938 442.676C969.096 443.28 968.378 443.858 967.712 444.395C964.22 447.206 962.159 448.865 951.189 447.049C939.744 445.155 938.537 443.313 935.6 438.829C935.185 438.195 934.735 437.509 934.217 436.762C930.034 430.731 930.593 425.449 931.621 418.848L936.173 419.602C934.71 429.004 937.92 434.169 937.92 434.169C937.92 434.169 940.497 440.744 951.877 442.628C963.258 444.512 967.011 438.984 967.011 438.984C967.011 438.984 971.964 432.902 973.169 425.159L977.941 425.949C978.559 425.859 979.192 425.845 979.824 425.91C981.418 426.075 982.925 426.735 984.12 427.793C985.316 428.852 986.137 430.251 986.461 431.784C986.785 433.317 986.595 434.902 985.92 436.304C985.244 437.705 984.119 438.848 982.711 439.564C981.303 440.279 979.687 440.528 978.104 440.275C976.52 440.021 975.054 439.278 973.921 438.155C973.879 438.113 973.836 438.07 973.795 438.027ZM977.469 429.994C978.087 429.681 978.789 429.552 979.491 429.624C980.264 429.704 980.994 430.024 981.574 430.538C982.154 431.051 982.552 431.729 982.709 432.473C982.866 433.216 982.774 433.984 982.446 434.664C982.119 435.343 981.573 435.898 980.89 436.245C980.208 436.592 979.424 436.712 978.657 436.589C977.889 436.466 977.178 436.106 976.629 435.562C976.276 435.212 976.002 434.797 975.821 434.347C976.467 432.957 977.023 431.497 977.469 429.994ZM929.872 446.924L971.423 453.803C972.206 453.932 972.724 454.78 972.582 455.697C972.439 456.613 971.689 457.251 970.907 457.121L929.355 450.242C928.573 450.113 928.054 449.265 928.197 448.349C928.339 447.432 929.089 446.795 929.872 446.924ZM1426.64 238.582C1424.38 243.273 1420.58 246.934 1416.07 248.759C1411.56 250.584 1406.71 250.424 1402.59 248.314C1398.47 246.204 1395.42 242.317 1394.1 237.508C1392.79 232.699 1393.32 227.362 1395.58 222.671C1395.58 222.671 1402.59 231.086 1411.11 230.627C1419.63 230.167 1426.64 238.582 1426.64 238.582ZM1426.04 253.27C1424.3 254.722 1422.48 255.912 1420.65 256.77C1419.6 257.112 1418.68 257.469 1417.83 257.8L1417.83 257.8C1413.38 259.534 1410.75 260.557 1400.06 255.08C1388.9 249.365 1388.23 247.078 1386.61 241.51L1386.61 241.51C1386.38 240.723 1386.13 239.871 1385.83 238.934C1383.4 231.368 1385.61 226.133 1388.71 219.699L1393.15 221.972C1388.74 231.136 1390.43 237.493 1390.43 237.493C1390.43 237.493 1391.04 245.088 1402.13 250.77C1413.22 256.453 1418.79 252.018 1418.79 252.018C1418.79 252.018 1425.75 247.409 1429.39 239.862L1434.04 242.244C1434.7 242.355 1435.35 242.549 1435.98 242.824C1437.57 243.518 1438.91 244.692 1439.81 246.172C1440.71 247.651 1441.11 249.358 1440.97 251.037C1440.83 252.717 1440.14 254.281 1439.02 255.496C1437.89 256.712 1436.38 257.514 1434.71 257.784C1433.05 258.054 1431.31 257.778 1429.77 256.996C1428.22 256.214 1426.95 254.968 1426.13 253.443C1426.1 253.386 1426.07 253.328 1426.04 253.27ZM1432.3 246.238C1433.03 246.121 1433.79 246.22 1434.49 246.525C1435.26 246.862 1435.91 247.431 1436.34 248.148C1436.78 248.866 1436.98 249.693 1436.91 250.508C1436.84 251.322 1436.51 252.08 1435.96 252.67C1435.41 253.259 1434.68 253.648 1433.88 253.779C1433.07 253.91 1432.23 253.776 1431.48 253.397C1430.73 253.018 1430.11 252.413 1429.71 251.674C1429.46 251.199 1429.31 250.683 1429.26 250.162C1430.35 248.949 1431.38 247.633 1432.3 246.238ZM1378.22 247.929L1418.72 268.675C1419.49 269.066 1419.76 270.107 1419.33 271C1418.9 271.893 1417.93 272.3 1417.17 271.91L1376.66 251.163C1375.9 250.773 1375.63 249.732 1376.06 248.839C1376.49 247.945 1377.46 247.538 1378.22 247.929ZM1275.64 101.85C1276.54 107.005 1275.61 112.283 1273.04 116.522C1270.48 120.761 1266.49 123.615 1261.97 124.455C1257.44 125.296 1252.74 124.054 1248.91 121.003C1245.07 117.952 1242.41 113.343 1241.51 108.188C1241.51 108.188 1252 110.629 1258.58 105.019C1265.15 99.4092 1275.64 101.85 1275.64 101.85ZM1283.66 114.006C1283.1 116.241 1282.32 118.321 1281.35 120.135C1280.7 121.056 1280.18 121.906 1279.69 122.694C1277.11 126.826 1275.6 129.264 1263.85 131.446C1251.59 133.722 1249.73 132.297 1245.2 128.827L1245.2 128.827C1244.56 128.337 1243.87 127.806 1243.09 127.239C1236.77 122.658 1235.51 117.096 1234.28 110.026L1239.16 109.12C1240.91 119.191 1245.95 123.251 1245.95 123.251C1245.95 123.251 1250.83 128.973 1263.02 126.71C1275.21 124.447 1277.11 117.465 1277.11 117.465C1277.11 117.465 1280.03 109.481 1278.59 101.187L1283.7 100.238C1284.29 99.9199 1284.93 99.6735 1285.59 99.5078C1287.27 99.0901 1289.02 99.2072 1290.6 99.8418C1292.18 100.476 1293.49 101.594 1294.35 103.03C1295.21 104.466 1295.56 106.143 1295.36 107.812C1295.16 109.481 1294.41 111.053 1293.23 112.295C1292.05 113.536 1290.5 114.382 1288.8 114.705C1287.11 115.029 1285.37 114.813 1283.83 114.09C1283.77 114.062 1283.72 114.034 1283.66 114.006ZM1284.61 104.513C1285.13 103.969 1285.8 103.58 1286.54 103.396C1287.35 103.194 1288.2 103.251 1288.96 103.558C1289.73 103.866 1290.37 104.408 1290.78 105.104C1291.2 105.801 1291.37 106.614 1291.27 107.423C1291.17 108.232 1290.81 108.994 1290.24 109.596C1289.67 110.199 1288.91 110.608 1288.09 110.765C1287.27 110.922 1286.43 110.817 1285.68 110.467C1285.2 110.241 1284.78 109.922 1284.44 109.531C1284.62 107.885 1284.68 106.2 1284.61 104.513ZM1242.19 139.137L1286.69 130.873C1287.53 130.718 1288.35 131.387 1288.52 132.369C1288.69 133.35 1288.15 134.272 1287.31 134.428L1242.81 142.692C1241.97 142.847 1241.15 142.178 1240.98 141.196C1240.81 140.215 1241.35 139.293 1242.19 139.137ZM1331.36 412.331C1331.16 417.565 1329.13 422.507 1325.74 426.071C1322.34 429.636 1317.85 431.53 1313.26 431.337C1308.66 431.144 1304.34 428.88 1301.23 425.044C1298.13 421.207 1296.5 416.111 1296.71 410.878C1296.71 410.878 1306.44 415.61 1314.04 411.604C1321.63 407.599 1331.36 412.331 1331.36 412.331ZM1336.63 425.991C1335.62 428.049 1334.42 429.905 1333.09 431.458C1332.26 432.213 1331.57 432.924 1330.92 433.583C1327.54 437.041 1325.55 439.081 1313.62 438.581C1301.17 438.059 1299.66 436.252 1295.97 431.852L1295.97 431.852C1295.45 431.231 1294.89 430.557 1294.24 429.829C1289.04 423.941 1288.98 418.231 1289.26 411.054L1294.22 411.261C1293.81 421.485 1297.87 426.575 1297.87 426.575C1297.87 426.575 1301.43 433.254 1313.81 433.773C1326.18 434.292 1329.51 427.902 1329.51 427.902C1329.51 427.902 1334.04 420.763 1334.38 412.343L1339.57 412.561C1340.21 412.383 1340.89 412.285 1341.57 412.272C1343.29 412.239 1344.98 412.746 1346.39 413.719C1347.79 414.691 1348.84 416.077 1349.38 417.67C1349.91 419.264 1349.9 420.98 1349.35 422.564C1348.81 424.148 1347.75 425.515 1346.33 426.463C1344.92 427.411 1343.22 427.889 1341.5 427.825C1339.78 427.762 1338.13 427.161 1336.78 426.112C1336.73 426.072 1336.68 426.032 1336.63 425.991ZM1339.56 416.938C1340.18 416.524 1340.91 416.294 1341.67 416.279C1342.51 416.263 1343.33 416.509 1344.01 416.98C1344.69 417.452 1345.2 418.124 1345.46 418.896C1345.72 419.669 1345.71 420.501 1345.45 421.269C1345.18 422.037 1344.67 422.7 1343.98 423.16C1343.3 423.619 1342.47 423.851 1341.64 423.82C1340.81 423.79 1340 423.498 1339.35 422.989C1338.93 422.662 1338.59 422.256 1338.34 421.799C1338.86 420.232 1339.27 418.6 1339.56 416.938ZM1290.86 441.241L1336.04 443.136C1336.89 443.172 1337.55 444.008 1337.51 445.005C1337.47 446.001 1336.75 446.78 1335.9 446.744L1290.71 444.849C1289.86 444.814 1289.21 443.977 1289.25 442.981C1289.28 441.984 1290.01 441.205 1290.86 441.241ZM645.852 402.896C644.513 410.458 640.592 417.213 634.95 421.676C629.309 426.139 622.409 427.945 615.77 426.694C609.13 425.444 603.294 421.241 599.545 415.011C595.797 408.779 594.443 401.031 595.781 393.469C595.781 393.469 608.983 402.399 620.816 398.182C632.65 393.965 645.852 402.896 645.852 402.896ZM650.795 423.859C648.916 426.635 646.805 429.08 644.563 431.056C643.215 431.979 642.064 432.865 640.996 433.688L640.996 433.688C635.398 437.999 632.095 440.544 614.858 437.298C596.874 433.912 595.032 430.967 590.547 423.794C589.913 422.781 589.227 421.683 588.435 420.488C582.036 410.833 583.091 402.524 584.927 392.153L592.08 393.499C589.465 408.273 594.358 416.527 594.358 416.527C594.358 416.527 598.205 426.984 616.087 430.351C633.97 433.718 640.068 425.133 640.068 425.133C640.068 425.133 648.077 415.716 650.23 403.55L657.728 404.961C658.705 404.84 659.704 404.84 660.699 404.965C663.207 405.28 665.56 406.374 667.411 408.084C669.261 409.794 670.51 412.029 670.97 414.457C671.431 416.886 671.08 419.378 669.969 421.564C668.858 423.751 667.046 425.514 664.803 426.593C662.559 427.672 660.004 428.009 657.516 427.554C655.027 427.098 652.739 425.875 650.991 424.066C650.925 423.998 650.86 423.929 650.795 423.859ZM656.851 411.321C657.835 410.85 658.947 410.671 660.051 410.81C661.267 410.962 662.409 411.493 663.306 412.322C664.203 413.151 664.808 414.235 665.032 415.412C665.255 416.59 665.085 417.798 664.546 418.858C664.007 419.918 663.129 420.773 662.041 421.296C660.954 421.82 659.714 421.983 658.508 421.762C657.302 421.541 656.192 420.948 655.344 420.071C654.799 419.507 654.381 418.844 654.111 418.128C655.174 415.959 656.099 413.675 656.851 411.321ZM581.251 436.359L646.54 448.651C647.769 448.882 648.559 450.237 648.304 451.677C648.049 453.117 646.846 454.096 645.617 453.865L580.328 441.573C579.098 441.341 578.308 439.986 578.563 438.547C578.818 437.107 580.021 436.127 581.251 436.359Z" fill="#2F2105"/>
</g>
</g>
<defs>
<filter id="filter0_d_205_136" x="-4" y="0" width="1449.12" height="492" filterUnits="userSpaceOnUse" color-interpolation-filters="sRGB">
<feFlood flood-opacity="0" result="BackgroundImageFix"/>
<feColorMatrix in="SourceAlpha" type="matrix" values="0 0 0 0 0 0 0 0 0 0 0 0 0 0 0 0 0 0 127 0" result="hardAlpha"/>
<feOffset dy="4"/>
<feGaussianBlur stdDeviation="2"/>
<feComposite in2="hardAlpha" operator="out"/>
<feColorMatrix type="matrix" values="0 0 0 0 0 0 0 0 0 0 0 0 0 0 0 0 0 0 0.25 0"/>
<feBlend mode="normal" in2="BackgroundImageFix" result="effect1_dropShadow_205_136"/>
<feBlend mode="normal" in="SourceGraphic" in2="effect1_dropShadow_205_136" result="shape"/>
</filter>
</defs>
</svg>
